<svg width="417" height="419" viewBox="0 0 417 419" fill="none" xmlns="http://www.w3.org/2000/svg">
<path d="M127.128 306.981L129.28 308.604L123.277 316.564L132.026 323.163L138.029 315.202L140.181 316.824L127.309 333.893L125.158 332.271L130.602 325.051L121.852 318.453L116.408 325.673L114.256 324.05L127.128 306.981Z" fill="#131313"/>
<path d="M100.363 302.686C99.103 301.189 98.4993 299.806 98.5518 298.535C98.6042 297.265 99.3481 296.025 100.784 294.817L109.144 287.779L110.378 289.245L108.965 291.099L109.042 291.191C110.164 291.16 111.136 291.307 111.958 291.633C112.767 291.943 113.609 292.617 114.483 293.656C115.422 294.77 115.909 295.939 115.946 297.16C115.968 298.394 115.352 299.539 114.1 300.593C112.878 301.621 111.534 301.931 110.068 301.522C108.586 301.125 106.973 299.952 105.227 298.003L103.404 295.977L102.671 296.594C101.648 297.455 101.124 298.275 101.1 299.052C101.076 299.829 101.404 300.622 102.086 301.431C102.626 302.073 103.239 302.6 103.926 303.013C104.598 303.439 105.268 303.801 105.936 304.099L104.945 305.99C104.205 305.7 103.427 305.272 102.612 304.706C101.781 304.153 101.031 303.48 100.363 302.686ZM106.413 296.575C107.759 298.051 108.897 298.906 109.826 299.142C110.742 299.362 111.589 299.145 112.368 298.489C113.055 297.911 113.386 297.28 113.359 296.598C113.32 295.9 113.024 295.223 112.471 294.567C111.597 293.528 110.588 292.903 109.445 292.692C108.286 292.493 107.111 292.895 105.92 293.898L104.82 294.824L106.413 296.575Z" fill="#131313"/>
<path d="M80.7952 271.965L94.9606 264.422L96.1991 266.747L84.0158 273.235L87.9142 280.556L100.098 274.068L101.336 276.393L87.1706 283.937L80.7952 271.965Z" fill="#131313"/>
<path d="M83.0493 250.767C83.2805 250.705 83.63 250.62 84.0976 250.514C84.5652 250.408 85.0355 250.312 85.5083 250.226C85.976 250.12 86.3473 250.04 86.6222 249.986L71.3998 245.205L70.5547 242.083L86.0457 237.889L86.6874 240.259L77.5546 242.732C77.2463 242.815 76.8417 242.925 76.3408 243.06C75.8346 243.177 75.3381 243.291 74.8512 243.402C74.345 243.518 73.9641 243.601 73.7084 243.649L88.8862 248.38L89.7391 251.531L74.2481 255.725L73.5986 253.326L83.0493 250.767Z" fill="#131313"/>
<path d="M67.2481 201.262L83.2968 201.21L83.3667 222.978L67.318 223.029L67.3095 220.394L81.1426 220.35L81.1204 213.433L67.2873 213.478L67.2789 210.843L81.1119 210.799L81.0896 203.852L67.2566 203.897L67.2481 201.262Z" fill="#131313"/>
<path d="M80.1147 182.386C80.3463 182.447 80.6912 182.548 81.1493 182.69C81.6074 182.831 82.063 182.983 82.516 183.143C82.9741 183.285 83.3358 183.401 83.6009 183.492L72.7944 171.753L73.6195 168.626L89.1371 172.721L88.5107 175.095L79.3622 172.681C79.0534 172.599 78.6481 172.492 78.1463 172.36C77.6496 172.208 77.1625 172.059 76.6851 171.912C76.1884 171.76 75.8171 171.642 75.5713 171.556L86.364 183.23L85.5314 186.385L70.0137 182.291L70.6478 179.888L80.1147 182.386Z" fill="#131313"/>
<path d="M87.3478 142.406L84.9823 147.081L97.3254 153.327L96.1494 155.651L83.8062 149.406L81.4677 154.028L79.4906 153.028L85.3708 141.406L87.3478 142.406Z" fill="#131313"/>
<path d="M97.5476 122.896C98.4046 121.817 99.3717 121.082 100.449 120.689C101.539 120.28 102.675 120.214 103.857 120.491C105.037 120.74 106.197 121.317 107.337 122.224L108.58 123.211L101.742 131.814C103.189 132.913 104.561 133.416 105.857 133.325C107.151 133.206 108.294 132.521 109.288 131.271C109.921 130.474 110.41 129.715 110.754 128.993C111.094 128.244 111.385 127.43 111.625 126.55L113.43 127.984C113.202 128.848 112.902 129.643 112.53 130.367C112.174 131.104 111.655 131.902 110.971 132.762C110.027 133.949 108.947 134.812 107.73 135.349C106.525 135.87 105.241 136.01 103.878 135.768C102.512 135.498 101.133 134.81 99.7423 133.705C98.3672 132.612 97.3675 131.447 96.7432 130.212C96.1313 128.96 95.8888 127.71 96.0158 126.459C96.1551 125.193 96.6657 124.005 97.5476 122.896ZM99.2166 124.26C98.4342 125.245 98.1335 126.281 98.3146 127.368C98.4926 128.428 99.1007 129.459 100.139 130.463L105.225 124.064C104.15 123.235 103.092 122.802 102.05 122.764C100.993 122.715 100.049 123.213 99.2166 124.26Z" fill="#131313"/>
<path d="M133.752 89.2534L137.457 94.8082L144.705 89.9734L141 84.4187L143.192 82.9566L152.098 96.308L149.906 97.77L145.935 91.8167L138.686 96.6515L142.657 102.605L140.465 104.067L131.56 90.7155L133.752 89.2534Z" fill="#131313"/>
<path d="M165.509 71.8428C167.333 71.1344 168.837 71.0104 170.022 71.4707C171.208 71.931 172.14 73.0357 172.82 74.7847L176.777 84.9716L174.991 85.6656L173.693 83.7288L173.581 83.7721C173.248 84.8438 172.794 85.716 172.221 86.3886C171.665 87.0541 170.755 87.6326 169.49 88.1241C168.132 88.6518 166.869 88.7356 165.701 88.3756C164.526 87.9969 163.642 87.0447 163.049 85.519C162.471 84.0305 162.612 82.6585 163.474 81.403C164.328 80.1289 165.959 78.9812 168.368 77.9598L170.875 76.8894L170.528 75.9962C170.044 74.7496 169.438 73.9892 168.71 73.7151C167.983 73.441 167.126 73.4955 166.14 73.8786C165.358 74.1822 164.661 74.5923 164.048 75.1089C163.428 75.6068 162.868 76.1239 162.37 76.6602L160.901 75.1109C161.415 74.5044 162.071 73.9067 162.87 73.3179C163.662 72.7104 164.542 72.2187 165.509 71.8428ZM169.336 79.543C167.504 80.3403 166.327 81.1404 165.804 81.9433C165.299 82.739 165.231 83.6112 165.6 84.5602C165.925 85.3975 166.415 85.9139 167.069 86.1094C167.742 86.2978 168.478 86.2365 169.278 85.9257C170.543 85.4341 171.461 84.6815 172.031 83.6678C172.593 82.6354 172.593 81.3936 172.029 79.9423L171.508 78.6027L169.336 79.543Z" fill="#131313"/>
<path d="M204.723 62.7833L207.052 78.6622L204.712 79.0055L203.226 68.8738C203.165 68.459 203.111 68.0231 203.064 67.5659C203.037 67.1059 203.011 66.6557 202.987 66.2154L202.898 66.2285L199.586 79.7572L197.394 80.0787L190.485 68.0491L190.396 68.0622C190.586 68.9422 190.749 69.8464 190.885 70.7746L192.358 80.8174L190.018 81.1607L187.689 65.2818L191.155 64.7734L198.034 76.8073L201.257 63.2917L204.723 62.7833Z" fill="#131313"/>
<path d="M241.143 77.6037L241.727 76.0959L244.1 77.0151L245.929 78.0125L246.188 77.7595L245.079 75.9812L244.063 73.6292L245.524 73.0071L246.551 75.3312L247.156 77.3318L247.518 77.3111L248.012 75.2873L248.932 72.914L250.439 73.498L249.52 75.8712L248.523 77.7004L248.776 77.959L250.571 76.8883L252.895 75.8619L253.556 77.3059L251.221 78.3603L249.203 78.9274L249.224 79.2886L251.248 79.7834L253.621 80.7026L253.037 82.2103L250.664 81.2911L248.824 80.3216L248.576 80.5468L249.675 82.3529L250.701 84.677L249.229 85.3271L248.203 83.003L247.608 80.9744L247.247 80.9951L246.752 83.019L245.833 85.3922L244.325 84.8083L245.244 82.435L246.242 80.6058L245.989 80.3472L244.182 81.4458L241.858 82.4722L241.208 81.0003L243.532 79.9739L245.561 79.3789L245.529 79.0456L243.516 78.5228L241.143 77.6037Z" fill="white"/>
<path d="M296.093 119.129L294.064 117.357L300.623 109.848L292.371 102.638L285.811 110.147L283.781 108.374L297.847 92.2738L299.876 94.0468L293.927 100.857L302.18 108.066L308.129 101.257L310.158 103.03L296.093 119.129Z" fill="white"/>
<path d="M322.475 125.334C323.625 126.917 324.127 128.341 323.984 129.604C323.84 130.867 323.009 132.05 321.49 133.152L312.646 139.572L311.52 138.021L313.063 136.272L312.992 136.175C311.871 136.126 310.912 135.909 310.116 135.525C309.331 135.158 308.54 134.425 307.743 133.326C306.887 132.147 306.484 130.947 306.536 129.726C306.603 128.493 307.299 127.396 308.623 126.434C309.916 125.496 311.279 125.284 312.712 125.798C314.161 126.3 315.686 127.585 317.287 129.655L318.96 131.807L319.736 131.244C320.818 130.459 321.399 129.679 321.479 128.906C321.559 128.133 321.288 127.318 320.667 126.462C320.175 125.783 319.601 125.213 318.945 124.752C318.306 124.279 317.663 123.869 317.018 123.524L318.142 121.709C318.86 122.051 319.605 122.534 320.378 123.157C321.166 123.768 321.866 124.494 322.475 125.334ZM316.002 130.994C314.765 129.426 313.692 128.49 312.782 128.189C311.884 127.903 311.024 128.059 310.2 128.657C309.473 129.185 309.098 129.79 309.075 130.472C309.064 131.171 309.311 131.867 309.815 132.562C310.612 133.661 311.574 134.356 312.699 134.65C313.84 134.931 315.041 134.614 316.301 133.7L317.464 132.856L316.002 130.994Z" fill="white"/>
<path d="M339.781 157.381L325.11 163.887L324.042 161.478L336.66 155.883L333.298 148.301L320.68 153.897L319.611 151.488L334.282 144.982L339.781 157.381Z" fill="white"/>
<path d="M336.011 178.362C335.776 178.408 335.421 178.467 334.947 178.539C334.473 178.611 333.997 178.673 333.52 178.725C333.046 178.797 332.669 178.85 332.391 178.884L347.231 184.747L347.849 187.921L332.097 190.991L331.627 188.581L340.914 186.771C341.228 186.71 341.639 186.63 342.149 186.531C342.662 186.451 343.165 186.373 343.659 186.297C344.172 186.218 344.558 186.163 344.816 186.133L330.018 180.323L329.394 177.12L345.146 174.05L345.621 176.489L336.011 178.362Z" fill="white"/>
<path d="M348.213 228.876L332.202 227.774L333.696 206.058L349.707 207.16L349.526 209.789L335.726 208.839L335.251 215.739L349.051 216.689L348.871 219.318L335.07 218.368L334.593 225.298L348.394 226.248L348.213 228.876Z" fill="#131313"/>
<path d="M334.027 246.778C333.8 246.7 333.463 246.574 333.017 246.4C332.57 246.226 332.126 246.043 331.686 245.85C331.239 245.675 330.887 245.534 330.629 245.424L340.564 257.91L339.516 260.969L324.333 255.77L325.128 253.447L334.08 256.512C334.382 256.615 334.778 256.751 335.269 256.919C335.754 257.106 336.229 257.29 336.695 257.471C337.179 257.658 337.541 257.803 337.78 257.906L327.854 245.487L328.911 242.399L344.095 247.598L343.29 249.95L334.027 246.778Z" fill="#131313"/>
<path d="M323.937 286.137L326.632 281.643L314.77 274.527L316.11 272.294L327.972 279.41L330.637 274.968L332.537 276.107L325.837 287.277L323.937 286.137Z" fill="#131313"/>
<path d="M312.367 304.865C311.434 305.878 310.417 306.543 309.314 306.857C308.198 307.187 307.06 307.171 305.9 306.81C304.742 306.477 303.627 305.817 302.554 304.831L301.386 303.757L308.824 295.668C307.46 294.468 306.128 293.867 304.828 293.865C303.529 293.891 302.339 294.492 301.259 295.668C300.57 296.417 300.028 297.139 299.633 297.834C299.239 298.556 298.891 299.348 298.588 300.208L296.891 298.648C297.181 297.802 297.537 297.031 297.96 296.336C298.368 295.626 298.944 294.868 299.687 294.059C300.713 292.943 301.853 292.16 303.106 291.712C304.345 291.279 305.636 291.232 306.978 291.571C308.321 291.938 309.647 292.723 310.954 293.926C312.247 295.115 313.161 296.348 313.695 297.625C314.215 298.917 314.367 300.182 314.151 301.421C313.921 302.673 313.326 303.821 312.367 304.865ZM310.8 303.383C311.651 302.458 312.026 301.446 311.923 300.348C311.822 299.279 311.289 298.207 310.326 297.131L304.793 303.148C305.806 304.052 306.83 304.56 307.866 304.672C308.917 304.797 309.895 304.368 310.8 303.383Z" fill="#131313"/>
<path d="M275.068 339.706L272.12 333.715L264.302 337.562L267.25 343.553L264.886 344.716L257.8 330.316L260.164 329.153L263.324 335.574L271.142 331.727L267.982 325.306L270.346 324.143L277.432 338.543L275.068 339.706Z" fill="#131313"/>
<path d="M241.313 352.821C239.412 353.286 237.905 353.212 236.79 352.601C235.675 351.99 234.894 350.773 234.449 348.95L231.856 338.334L233.717 337.879L234.752 339.969L234.868 339.94C235.338 338.921 235.902 338.116 236.558 337.524C237.196 336.937 238.174 336.482 239.492 336.16C240.908 335.814 242.171 335.896 243.282 336.405C244.397 336.934 245.149 337.994 245.538 339.584C245.917 341.135 245.597 342.477 244.579 343.609C243.566 344.761 241.799 345.685 239.278 346.384L236.652 347.118L236.879 348.048C237.197 349.347 237.698 350.18 238.384 350.547C239.069 350.914 239.926 350.972 240.954 350.721C241.768 350.522 242.513 350.206 243.188 349.774C243.868 349.362 244.49 348.922 245.054 348.455L246.309 350.183C245.72 350.717 244.991 351.224 244.122 351.704C243.257 352.203 242.321 352.575 241.313 352.821ZM238.524 344.688C240.444 344.136 241.716 343.497 242.34 342.769C242.944 342.046 243.125 341.19 242.884 340.201C242.671 339.329 242.253 338.753 241.63 338.473C240.987 338.199 240.249 338.163 239.415 338.367C238.097 338.689 237.089 339.316 236.391 340.246C235.699 341.196 235.537 342.427 235.907 343.94L236.248 345.336L238.524 344.688Z" fill="#131313"/>
<path d="M201.248 356.683L201.012 340.636L203.377 340.601L203.528 350.84C203.534 351.259 203.53 351.699 203.517 352.158C203.484 352.618 203.45 353.067 203.417 353.507L203.507 353.506L208.557 340.525L210.772 340.493L216.051 353.321L216.141 353.32C216.068 352.423 216.024 351.505 216.011 350.567L215.862 340.418L218.227 340.383L218.462 356.43L214.96 356.482L209.711 343.652L204.751 356.632L201.248 356.683Z" fill="#131313"/>
<path d="M171.709 342.267L171.114 343.771L168.747 342.834L166.926 341.823L166.665 342.074L167.761 343.861L168.76 346.22L167.294 346.831L166.285 344.5L165.694 342.495L165.332 342.513L164.823 344.533L163.886 346.9L162.383 346.305L163.319 343.938L164.33 342.116L164.079 341.856L162.276 342.913L159.944 343.923L159.294 342.474L161.637 341.437L163.658 340.884L163.64 340.523L161.62 340.013L159.254 339.077L159.849 337.573L162.215 338.51L164.048 339.493L164.297 339.27L163.212 337.455L162.203 335.124L163.679 334.485L164.689 336.816L165.269 338.849L165.63 338.831L166.14 336.811L167.076 334.444L168.58 335.039L167.643 337.406L166.633 339.228L166.884 339.488L168.698 338.403L171.029 337.393L171.669 338.87L169.337 339.879L167.304 340.46L167.333 340.793L169.342 341.331L171.709 342.267Z" fill="#131313"/>
<path d="M229.951 169.164L187.284 252.935" stroke="#131313" stroke-width="1.87136" stroke-linecap="round" stroke-linejoin="round"/>
<path d="M230.785 169.588C231.019 169.128 230.836 168.564 230.376 168.33C229.915 168.095 229.352 168.278 229.117 168.739L230.785 169.588ZM217.771 191.016L217.346 191.85L219.014 192.699L219.439 191.865L217.771 191.016ZM229.117 168.739L217.771 191.016L219.439 191.865L230.785 169.588L229.117 168.739Z" fill="white"/>
<path d="M166.73 189.715L250.501 232.383" stroke="#131313" stroke-width="1.87136" stroke-linecap="round" stroke-linejoin="round"/>
</svg>
