<svg width="199" height="199" viewBox="0 0 199 199" fill="none" xmlns="http://www.w3.org/2000/svg">
<circle cx="99.5" cy="99.5" r="98" stroke="#EBEBEB" stroke-width="3"/>
<mask id="path-2-inside-1" fill="white">
<path d="M199 99.5C199 119.691 192.857 139.405 181.387 156.022C169.918 172.639 153.664 185.373 134.785 192.533C115.906 199.694 95.2953 200.941 75.6907 196.109C56.0861 191.278 38.4153 180.596 25.0256 165.483C11.6358 150.371 3.16069 131.542 0.726006 111.498C-1.70867 91.454 2.01228 71.1437 11.3946 53.2648C20.777 35.3859 35.3767 20.7845 53.2545 11.4C71.1323 2.0156 91.4421 -1.70773 111.486 0.724604L99.5 99.5H199Z"/>
</mask>
<path d="M199 99.5C199 119.691 192.857 139.405 181.387 156.022C169.918 172.639 153.664 185.373 134.785 192.533C115.906 199.694 95.2953 200.941 75.6907 196.109C56.0861 191.278 38.4153 180.596 25.0256 165.483C11.6358 150.371 3.16069 131.542 0.726006 111.498C-1.70867 91.454 2.01228 71.1437 11.3946 53.2648C20.777 35.3859 35.3767 20.7845 53.2545 11.4C71.1323 2.0156 91.4421 -1.70773 111.486 0.724604L99.5 99.5H199Z" stroke="#FA5C45" stroke-width="6" mask="url(#path-2-inside-1)"/>
</svg>
