<svg width="199" height="199" viewBox="0 0 199 199" fill="none" xmlns="http://www.w3.org/2000/svg">
<circle cx="99.5" cy="99.5" r="98" stroke="#EBEBEB" stroke-width="3"/>
<mask id="path-2-inside-1" fill="white">
<path d="M199 99.5C199 122.877 190.769 145.508 175.75 163.423C160.732 181.338 139.885 193.393 116.866 197.473C93.8479 201.553 70.1278 197.398 49.8667 185.737C29.6055 174.076 14.0973 155.653 6.06214 133.7C-1.97299 111.747 -2.02187 87.6654 5.92406 65.68C13.87 43.6945 29.3033 25.2088 49.517 13.4654C69.7306 1.72205 93.4336 -2.52915 116.468 1.45756C139.503 5.44426 160.399 17.4143 175.49 35.268L99.5 99.5H199Z"/>
</mask>
<path d="M199 99.5C199 122.877 190.769 145.508 175.75 163.423C160.732 181.338 139.885 193.393 116.866 197.473C93.8479 201.553 70.1278 197.398 49.8667 185.737C29.6055 174.076 14.0973 155.653 6.06214 133.7C-1.97299 111.747 -2.02187 87.6654 5.92406 65.68C13.87 43.6945 29.3033 25.2088 49.517 13.4654C69.7306 1.72205 93.4336 -2.52915 116.468 1.45756C139.503 5.44426 160.399 17.4143 175.49 35.268L99.5 99.5H199Z" stroke="#FA5C45" stroke-width="6" mask="url(#path-2-inside-1)"/>
</svg>
