<svg width="199" height="199" viewBox="0 0 199 199" fill="none" xmlns="http://www.w3.org/2000/svg">
<circle cx="99.5" cy="99.5" r="98" stroke="#EBEBEB" stroke-width="3"/>
<mask id="path-2-inside-1" fill="white">
<path d="M199 99.5C199 114.601 195.563 129.505 188.948 143.08C182.334 156.656 172.716 168.548 160.824 177.856C148.932 187.163 135.077 193.641 120.31 196.8C105.542 199.958 90.2499 199.713 75.591 196.085C60.9322 192.456 47.2915 185.538 35.7029 175.856C24.1142 166.173 14.8815 153.98 8.70452 140.199C2.5275 126.419 -0.431814 111.414 0.0508311 96.3199C0.533477 81.2263 4.44542 66.4405 11.4902 53.0831L99.5 99.5H199Z"/>
</mask>
<path d="M199 99.5C199 114.601 195.563 129.505 188.948 143.08C182.334 156.656 172.716 168.548 160.824 177.856C148.932 187.163 135.077 193.641 120.31 196.8C105.542 199.958 90.2499 199.713 75.591 196.085C60.9322 192.456 47.2915 185.538 35.7029 175.856C24.1142 166.173 14.8815 153.98 8.70452 140.199C2.5275 126.419 -0.431814 111.414 0.0508311 96.3199C0.533477 81.2263 4.44542 66.4405 11.4902 53.0831L99.5 99.5H199Z" stroke="#FA5C45" stroke-width="6" mask="url(#path-2-inside-1)"/>
</svg>
