<svg width="17" height="17" viewBox="0 0 17 17" fill="none" xmlns="http://www.w3.org/2000/svg">
<g clip-path="url(#clip0)">
<path d="M13.9453 0.25H2.63281C1.34063 0.25 0.289062 1.30156 0.289062 2.59375V13.9062C0.289062 15.1987 1.34063 16.25 2.63281 16.25H13.9453C15.2378 16.25 16.2891 15.1987 16.2891 13.9062V2.59375C16.2891 1.30156 15.2378 0.25 13.9453 0.25ZM15.3516 13.9062C15.3516 14.6816 14.7206 15.3125 13.9453 15.3125H2.63281C1.8575 15.3125 1.22656 14.6816 1.22656 13.9062V2.59375C1.22656 1.81844 1.8575 1.1875 2.63281 1.1875H13.9453C14.7206 1.1875 15.3516 1.81844 15.3516 2.59375V13.9062Z" fill="#FA5C45"/>
<path d="M13.4453 2.15625C12.9284 2.15625 12.5078 2.57687 12.5078 3.09375C12.5078 3.61063 12.9284 4.03125 13.4453 4.03125C13.9622 4.03125 14.3828 3.61063 14.3828 3.09375C14.3828 2.57687 13.9622 2.15625 13.4453 2.15625Z" fill="#FA5C45"/>
<path d="M8.28906 4.03125C5.96281 4.03125 4.07031 5.92375 4.07031 8.25C4.07031 10.5763 5.96281 12.4688 8.28906 12.4688C10.6153 12.4688 12.5078 10.5763 12.5078 8.25C12.5078 5.92375 10.6153 4.03125 8.28906 4.03125ZM8.28906 11.5312C6.47969 11.5312 5.00781 10.0594 5.00781 8.25C5.00781 6.44062 6.47969 4.96875 8.28906 4.96875C10.0984 4.96875 11.5703 6.44062 11.5703 8.25C11.5703 10.0594 10.0984 11.5312 8.28906 11.5312Z" fill="#FA5C45"/>
</g>
<defs>
<clipPath id="clip0">
<rect width="16" height="16" fill="white" transform="translate(0.289062 0.25)"/>
</clipPath>
</defs>
</svg>
