<svg width="17" height="17" viewBox="0 0 17 17" fill="none" xmlns="http://www.w3.org/2000/svg">
<g clip-path="url(#clip0)">
<path d="M8.77734 0.250977C4.37234 0.250977 0.777344 3.84629 0.777344 8.25098C0.777344 12.656 4.37266 16.251 8.77734 16.251C13.1823 16.251 16.7773 12.6557 16.7773 8.25098C16.7773 3.84598 13.182 0.250977 8.77734 0.250977ZM14.2036 3.73566C15.2023 4.93379 15.812 6.4666 15.8383 8.13848C14.5864 7.84566 13.1961 7.82598 11.7802 8.0841C11.4117 8.15129 11.0433 8.2366 10.677 8.3391C10.5552 8.00754 10.4258 7.67879 10.2883 7.35316C10.148 7.02098 9.99984 6.69441 9.84484 6.37254C11.532 5.72816 13.3602 4.76879 14.2036 3.73566ZM8.77734 1.18848C10.6155 1.18848 12.2914 1.89441 13.5492 3.0491C13.0586 3.71816 11.6605 4.69223 9.41734 5.53223C8.63422 4.0741 7.69516 2.7341 6.61016 1.5291C7.29328 1.30816 8.02172 1.18848 8.77734 1.18848ZM5.68203 1.9041C6.78859 3.08941 7.74047 4.41316 8.52453 5.84316C6.19078 6.59848 3.82797 6.9066 1.88516 6.70754C2.35828 4.59348 3.78172 2.83441 5.68203 1.9041ZM1.71484 8.25098C1.71484 8.04348 1.72453 7.83816 1.74203 7.63535C2.17078 7.68066 2.61797 7.70348 3.08016 7.70348C4.90297 7.70348 6.95078 7.35285 8.96172 6.68691C9.26859 7.31504 9.54453 7.96129 9.78797 8.62348C9.00391 8.90535 8.24078 9.26379 7.52422 9.69035C5.76734 10.7363 4.48203 12.0819 3.94891 13.4C2.57484 12.1107 1.71484 10.2794 1.71484 8.25098ZM8.77734 15.3135C7.26828 15.3135 5.86828 14.8375 4.71922 14.0279C5.07547 12.8241 6.28047 11.5219 8.00391 10.496C8.61109 10.1341 9.32109 9.79316 10.0939 9.51598C10.6417 11.2379 10.9773 13.0554 11.0839 14.9263C10.3608 15.1769 9.58484 15.3135 8.77734 15.3135ZM11.9983 14.5354C11.8683 12.7129 11.5289 10.9385 10.9842 9.2341C12.503 8.8166 14.1898 8.6766 15.7895 9.0916C15.5064 11.4669 14.0402 13.4844 11.9983 14.5354Z" fill="#FA5C45"/>
</g>
<defs>
<clipPath id="clip0">
<rect width="16" height="16" fill="white" transform="translate(0.777344 0.250977)"/>
</clipPath>
</defs>
</svg>
