<svg width="21" height="21" viewBox="0 0 21 21" fill="none" xmlns="http://www.w3.org/2000/svg">
<g clip-path="url(#clip0)">
<path d="M7.1459 16.4734H2.32734V5.13008H7.1459C8.8619 5.13008 10.2583 6.52644 10.2583 8.24245C10.2583 9.17066 9.84939 10.0051 9.2009 10.5767L8.94556 10.8017L9.2009 11.0268C9.84939 11.5984 10.2583 12.4328 10.2583 13.361C10.2583 15.077 8.8619 16.4734 7.1459 16.4734ZM3.43353 15.0672V15.3672H3.73353H7.1459C8.25243 15.3672 9.15208 14.4675 9.15208 13.361C9.15208 12.2545 8.25243 11.3548 7.1459 11.3548H3.73353H3.43353V11.6548V15.0672ZM3.43353 9.94863V10.2486H3.73353H7.1459C8.25243 10.2486 9.15208 9.34898 9.15208 8.24245C9.15208 7.13592 8.25243 6.23626 7.1459 6.23626H3.73353H3.43353V6.53626V9.94863Z" stroke="#FA5C45" stroke-width="0.6"/>
<path d="M16.5291 15.3669C17.4466 15.3669 18.3076 14.9222 18.8423 14.1886L19.8036 14.7448C19.0687 15.8177 17.8395 16.4731 16.5291 16.4731C14.3428 16.4731 12.5637 14.694 12.5637 12.5077C12.5637 10.3213 14.3428 8.54219 16.5291 8.54219C18.7155 8.54219 20.4946 10.3213 20.4946 12.5077V13.0607H14.116H13.6914L13.8333 13.461C14.2264 14.5697 15.2855 15.3669 16.5291 15.3669ZM13.8333 11.5543L13.6914 11.9546H14.116H18.9422H19.3669L19.225 11.5543C18.8319 10.4456 17.7728 9.64837 16.5291 9.64837C15.2855 9.64837 14.2264 10.4456 13.8333 11.5543Z" stroke="#FA5C45" stroke-width="0.6"/>
<path d="M13.4172 5.13008H19.6419V6.23626H13.4172V5.13008Z" stroke="#FA5C45" stroke-width="0.6"/>
</g>
<defs>
<clipPath id="clip0">
<rect width="20" height="20" fill="white" transform="translate(0.777344 0.619141)"/>
</clipPath>
</defs>
</svg>
