<svg width="17" height="17" viewBox="0 0 17 17" fill="none" xmlns="http://www.w3.org/2000/svg">
<g clip-path="url(#clip0)">
<path d="M15.0192 9.84698L15.0105 9.83893C14.8739 9.71283 14.4555 9.3056 14.3144 9.12762C14.1487 8.90557 14.1869 8.76007 14.3111 8.54205C14.4679 8.26653 14.7823 7.84393 15.1149 7.39642C16.1803 5.96355 16.8682 4.97161 16.7266 4.26702L16.6503 3.89067L12.7156 3.89238C12.7018 3.92949 12.4965 4.83147 11.63 6.36736C11.0017 7.48101 10.5896 7.83086 10.4445 7.89263L10.422 7.8858C10.3748 7.82745 10.2923 7.66998 10.2583 7.26409C10.2229 6.83892 10.2543 6.32415 10.2847 5.82634C10.3202 5.2426 10.3508 4.73845 10.2775 4.37773L10.158 3.79009C10.0136 3.76701 9.48488 3.56303 8.01185 3.54753C6.73658 3.53447 6.36195 3.71867 6.17799 3.88103L5.56947 4.41802L6.33863 4.67681C6.63136 4.77532 6.72853 4.88897 6.80824 5.45232C6.86024 5.81951 6.88746 6.43658 6.83131 6.98748C6.75062 7.7774 6.55714 7.92437 6.54713 7.93218C6.5138 7.92083 6.23121 7.79717 5.74061 6.75994C5.40028 6.04058 5.10194 5.18962 4.88392 4.56829C4.63441 3.85674 4.67933 4.00823 4.55274 3.67204L0.746094 3.67192L0.992432 4.30913C2.01941 6.96819 2.96167 9.04473 4.22266 10.5362C5.61585 12.184 7.3473 13.0468 9.67958 13.0468H10.1483V12.5781C10.1483 12.1398 10.1846 11.8243 10.2623 11.585C10.3098 11.4393 10.3729 11.3188 10.4392 11.1924C10.5376 11.0064 10.6338 10.9267 10.6863 10.9149C10.7339 10.904 10.8176 10.9389 10.9104 11.0081C11.1768 11.2067 11.3882 11.4677 11.6121 11.7441C11.9351 12.1429 12.2691 12.5551 12.799 12.825C13.0885 12.9725 13.6193 13.0469 13.9114 13.0469C13.9887 13.0469 16.7427 13.0468 16.7461 13.0468L16.726 12.5588C16.696 11.829 16.1216 10.9166 15.0192 9.84698ZM13.9296 12.1093H13.922C13.7206 12.1126 13.3362 12.0466 13.2244 11.9897C12.8721 11.8102 12.6259 11.5062 12.3406 11.1541C12.0902 10.8449 11.8313 10.5252 11.4708 10.2565C11.1793 10.0391 10.9146 9.97552 10.7044 9.97552C10.6204 9.97552 10.5449 9.98565 10.4802 10.0003C10.2362 10.0552 9.88722 10.2308 9.60976 10.7556C9.53151 10.9048 9.44277 11.0739 9.37087 11.2951C9.29555 11.5266 9.24867 11.7838 9.22633 12.0966C7.46876 11.9968 6.0973 11.3015 4.93861 9.93097C3.86133 8.65667 3.0138 6.87432 2.11621 4.60906C2.18116 4.60906 3.80848 4.6093 3.90455 4.6093C3.93397 4.69194 3.9657 4.78252 3.9994 4.87847C4.23438 5.54876 4.55628 6.4666 4.93555 7.24932C5.47865 8.37017 5.97462 8.87005 6.54359 8.87005C6.82765 8.87005 7.08241 8.74969 7.28029 8.52178C7.56239 8.19695 7.72621 7.66082 7.78114 6.88262C7.82448 6.26897 7.78419 5.65777 7.73659 5.32097C7.69728 5.04387 7.64125 4.75298 7.50453 4.49236C8.08717 4.46611 8.86732 4.50762 9.36159 4.57854C9.40651 4.82317 9.37721 5.304 9.34889 5.76922C9.28041 6.893 9.20973 8.05267 9.80458 8.59527C9.9092 8.69073 10.0202 8.74188 10.0233 8.74395L10.3261 8.83685C10.4429 8.80084 11.1195 9.1441 12.4008 6.90813C12.8113 6.1917 13.1935 5.36614 13.3993 4.82695C13.8766 4.82598 15.5027 4.82781 15.6938 4.82805C15.4231 5.42363 14.7818 6.27312 14.3626 6.83697C13.9971 7.32842 13.6815 7.75286 13.4964 8.07806C13.1524 8.68219 13.2102 9.22064 13.5685 9.69561L13.5741 9.70294C13.7741 9.95746 14.2678 10.4286 14.3703 10.5236C15.1122 11.244 15.4698 11.7614 15.6399 12.1092H13.9296V12.1093Z" fill="#FA5C45"/>
</g>
<defs>
<clipPath id="clip0">
<rect width="16" height="15.9688" fill="white" transform="translate(0.777344 0.28125)"/>
</clipPath>
</defs>
</svg>
