<svg width="17" height="17" viewBox="0 0 17 17" fill="none" xmlns="http://www.w3.org/2000/svg">
<g clip-path="url(#clip0)">
<path d="M13.9453 2.15625H2.63281C1.34031 2.15625 0.289062 3.20781 0.289062 4.5V12C0.289062 13.2922 1.34031 14.3438 2.63281 14.3438H13.9453C15.2378 14.3438 16.2891 13.2922 16.2891 12V4.5C16.2891 3.20781 15.2378 2.15625 13.9453 2.15625ZM15.3516 12C15.3516 12.7753 14.7206 13.4062 13.9453 13.4062H2.63281C1.8575 13.4062 1.22656 12.7753 1.22656 12V4.5C1.22656 3.72469 1.8575 3.09375 2.63281 3.09375H13.9453C14.7206 3.09375 15.3516 3.72469 15.3516 4.5V12Z" fill="#FA5C45"/>
<path d="M10.8915 7.84023L6.67281 5.49648C6.52781 5.41585 6.35062 5.41804 6.2075 5.50211C6.06437 5.58648 5.97656 5.74023 5.97656 5.90617V10.6718C5.97656 10.839 6.06562 10.9937 6.21031 11.0774C6.35781 11.1627 6.53656 11.1599 6.67875 11.0784L10.8975 8.65648C11.044 8.57242 11.134 8.41554 11.1328 8.24648C11.1315 8.07742 11.0394 7.92211 10.8915 7.84023ZM6.91406 9.8621V6.70273L9.71093 8.25648L6.91406 9.8621Z" fill="#FA5C45"/>
</g>
<defs>
<clipPath id="clip0">
<rect width="16" height="16" fill="white" transform="translate(0.289062 0.25)"/>
</clipPath>
</defs>
</svg>
