<svg width="30" height="30" viewBox="0 0 30 30" fill="none" xmlns="http://www.w3.org/2000/svg">
<path d="M27.6679 9.77645C27.6536 8.70575 27.4528 7.64571 27.0746 6.64372C26.7465 5.79856 26.2455 5.03099 25.6035 4.39008C24.9615 3.74916 24.1927 3.24898 23.3461 2.9215C22.3554 2.55021 21.3087 2.34944 20.2507 2.32775C18.8884 2.26696 18.4565 2.25 14.9986 2.25C11.5406 2.25 11.0974 2.25 9.74509 2.32775C8.68753 2.3496 7.64135 2.55036 6.65104 2.9215C5.80434 3.24875 5.03538 3.74885 4.39336 4.3898C3.75135 5.03074 3.25041 5.79843 2.92262 6.64372C2.54996 7.63208 2.3493 8.67676 2.3293 9.73262C2.26841 11.094 2.25 11.5252 2.25 14.9774C2.25 18.4296 2.25 18.8707 2.3293 20.2221C2.35054 21.2796 2.5502 22.3229 2.92262 23.3139C3.25096 24.1589 3.75227 24.9263 4.3945 25.567C5.03673 26.2076 5.80576 26.7075 6.65246 27.0347C7.64005 27.4209 8.68642 27.636 9.7465 27.6708C11.1101 27.7316 11.542 27.75 15 27.75C18.458 27.75 18.9012 27.75 20.2535 27.6708C21.3115 27.65 22.3582 27.4497 23.349 27.0785C24.1953 26.7506 24.964 26.2503 25.6059 25.6095C26.2478 24.9686 26.749 24.2012 27.0774 23.3563C27.4498 22.3667 27.6495 21.3234 27.6707 20.2646C27.7316 18.9046 27.75 18.4734 27.75 15.0198C27.7472 11.5676 27.7472 11.1293 27.6679 9.77645ZM14.9901 21.5058C11.3735 21.5058 8.44375 18.5809 8.44375 14.9703C8.44375 11.3598 11.3735 8.43486 14.9901 8.43486C16.7263 8.43486 18.3914 9.12342 19.619 10.3491C20.8467 11.5747 21.5364 13.237 21.5364 14.9703C21.5364 16.7036 20.8467 18.3659 19.619 19.5916C18.3914 20.8172 16.7263 21.5058 14.9901 21.5058ZM21.797 9.71707C20.9516 9.71707 20.2705 9.03568 20.2705 8.19312C20.2705 7.99309 20.31 7.79501 20.3866 7.6102C20.4633 7.42539 20.5757 7.25747 20.7174 7.11603C20.8591 6.97458 21.0273 6.86238 21.2124 6.78583C21.3975 6.70928 21.5959 6.66988 21.7963 6.66988C21.9966 6.66988 22.195 6.70928 22.3802 6.78583C22.5653 6.86238 22.7335 6.97458 22.8752 7.11603C23.0168 7.25747 23.1292 7.42539 23.2059 7.6102C23.2826 7.79501 23.3221 7.99309 23.3221 8.19312C23.3221 9.03568 22.6395 9.71707 21.797 9.71707Z" fill="white"/>
<path d="M15 19.5C17.4853 19.5 19.5 17.4853 19.5 15C19.5 12.5147 17.4853 10.5 15 10.5C12.5147 10.5 10.5 12.5147 10.5 15C10.5 17.4853 12.5147 19.5 15 19.5Z" fill="white"/>
</svg>
