<svg width="35" height="35" viewBox="0 0 35 35" fill="none" xmlns="http://www.w3.org/2000/svg">
<path d="M33.3672 10.1867C33.5956 9.50312 33.3672 9 32.2685 9H28.6329C27.707 9 27.2811 9.43203 27.0527 9.91328C27.0527 9.91328 25.201 13.9109 22.5838 16.5031C21.7382 17.2523 21.3493 17.493 20.8864 17.493C20.658 17.493 20.3061 17.2523 20.3061 16.5687V10.1867C20.3061 9.36641 20.0469 9 19.2815 9H13.5657C12.9855 9 12.6398 9.38281 12.6398 9.73828C12.6398 10.5148 13.9484 10.6953 14.0842 12.8828V17.6297C14.0842 18.6687 13.8744 18.8602 13.4114 18.8602C12.1769 18.8602 9.17706 14.8461 7.39937 10.2523C7.04136 9.36094 6.68953 9 5.75747 9H2.12185C1.08487 9 0.875 9.43203 0.875 9.91328C0.875 10.7664 2.10951 15.0047 6.62163 20.6047C9.62765 24.4273 13.862 26.5 17.7137 26.5C20.0284 26.5 20.3123 26.0406 20.3123 25.2477C20.3123 21.5945 20.1024 21.25 21.2629 21.25C21.7999 21.25 22.7258 21.4906 24.8862 23.3336C27.3552 25.5211 27.7626 26.5 29.1452 26.5H32.7808C33.8178 26.5 34.3425 26.0406 34.04 25.1328C33.3487 23.2242 28.6761 19.2977 28.4662 19.0352C27.9292 18.4227 28.0835 18.1492 28.4662 17.6023C28.4724 17.5969 32.9104 12.0625 33.3672 10.1867Z" fill="white"/>
</svg>
