<svg width="17" height="17" viewBox="0 0 17 17" fill="none" xmlns="http://www.w3.org/2000/svg">
<g clip-path="url(#clip0)">
<path d="M16.6583 0.890996C16.5198 0.735997 16.3014 0.694435 16.1205 0.773497L1.05808 7.3672C0.89121 7.44032 0.781523 7.60376 0.777461 7.78626C0.773398 7.96844 0.875585 8.13656 1.03933 8.21719L4.63587 9.98592L5.53211 15.3628C5.56117 15.5668 5.72148 15.7309 5.93023 15.7606C6.08023 15.7821 6.22929 15.7293 6.33242 15.6231L9.17177 12.7837L13.2236 15.6781C13.3536 15.7706 13.5211 15.7909 13.6686 15.7324C13.8164 15.674 13.9245 15.5443 13.9558 15.3884L16.7683 1.29474C16.7961 1.15506 16.7601 1.00537 16.6583 0.890996ZM5.00711 9.12374L2.3587 7.82125L12.8217 3.24098L5.00711 9.12374ZM6.47398 10.5172L6.03804 12.6968L5.56774 9.87499L11.3168 5.54721L6.60179 10.2781C6.53554 10.3444 6.49148 10.4306 6.47398 10.5172ZM6.75929 13.8703L7.25116 11.4119L8.39834 12.2312L6.75929 13.8703ZM13.1783 14.4934L7.65553 10.5487L15.5452 2.63286L13.1783 14.4934Z" fill="#FA5C45"/>
</g>
<defs>
<clipPath id="clip0">
<rect width="16" height="16" fill="white" transform="translate(0.777344 0.25)"/>
</clipPath>
</defs>
</svg>
