<svg width="17" height="17" viewBox="0 0 17 17" fill="none" xmlns="http://www.w3.org/2000/svg">
<g clip-path="url(#clip0)">
<path d="M12.0391 4C12.2978 4 12.5078 3.79 12.5078 3.53125V0.71875C12.5078 0.46 12.2978 0.25 12.0391 0.25H9.22656C7.41719 0.25 5.94531 1.72187 5.94531 3.53125V5.875H4.53906C4.28031 5.875 4.07031 6.085 4.07031 6.34375V9.15625C4.07031 9.415 4.28031 9.625 4.53906 9.625H5.94531V15.7812C5.94531 16.04 6.15531 16.25 6.41406 16.25H9.22656C9.48531 16.25 9.69531 16.04 9.69531 15.7812V9.625H11.5703C11.7994 9.625 11.995 9.45938 12.0328 9.23344L12.5016 6.42094C12.5241 6.285 12.4859 6.14594 12.3969 6.04063C12.3078 5.93563 12.1769 5.875 12.0391 5.875H9.69531V4H12.0391ZM9.22656 6.8125H11.4856L11.1731 8.6875H9.22656C8.96781 8.6875 8.75781 8.8975 8.75781 9.15625V15.3125H6.88281V9.15625C6.88281 8.8975 6.67281 8.6875 6.41406 8.6875H5.00781V6.8125H6.41406C6.67281 6.8125 6.88281 6.6025 6.88281 6.34375V3.53125C6.88281 2.23906 7.93438 1.1875 9.22656 1.1875H11.5703V3.0625H9.22656C8.96781 3.0625 8.75781 3.2725 8.75781 3.53125V6.34375C8.75781 6.6025 8.96781 6.8125 9.22656 6.8125Z" fill="#FA5C45"/>
</g>
<defs>
<clipPath id="clip0">
<rect width="16" height="16" fill="white" transform="translate(0.289062 0.25)"/>
</clipPath>
</defs>
</svg>
