<svg width="17" height="17" viewBox="0 0 17 17" fill="none" xmlns="http://www.w3.org/2000/svg">
<g clip-path="url(#clip0)">
<path d="M16.1797 3.59457L16.1747 3.58832C16.1744 3.58801 16.1741 3.5877 16.1737 3.58707C16.1734 3.58676 16.1728 3.58614 16.1725 3.58582L16.1675 3.57989C16.0431 3.43583 15.8766 3.39177 15.7269 3.41833C15.6588 3.41864 15.5922 3.4202 15.5269 3.42302C15.6534 3.22615 15.7647 3.0049 15.8481 2.75647C15.9053 2.58585 15.8597 2.39773 15.7313 2.27211C15.6025 2.14649 15.4134 2.10555 15.2444 2.16649C15.0844 2.2243 14.0251 2.60491 13.6579 2.74178C13.6441 2.7471 13.6344 2.7496 13.6288 2.75085C13.6182 2.74553 13.5938 2.73147 13.5519 2.69616C12.5682 1.87556 11.257 1.62307 10.0445 2.02087C8.88208 2.40242 8.01585 3.32864 7.72774 4.49892C7.64743 4.8261 7.63524 5.15765 7.62524 5.47889C5.44687 5.23421 3.57442 4.25205 2.05321 2.55492C1.95166 2.44179 1.80166 2.38492 1.65041 2.40211C1.49917 2.41961 1.36605 2.50929 1.29292 2.64273C0.93731 3.29208 0.785127 3.91956 0.827938 4.56017C0.864812 5.11453 1.01981 5.61983 1.29074 6.07356C1.17449 6.067 1.05824 6.10387 0.966372 6.17918C0.849813 6.27449 0.786377 6.4198 0.795752 6.57011C0.846688 7.41196 1.11355 8.13069 1.58885 8.7063C1.7226 8.86848 1.87166 9.0191 2.03728 9.1591C2.0029 9.18722 1.97259 9.22066 1.94728 9.25847C1.8601 9.38753 1.84291 9.5519 1.90134 9.69627C2.32321 10.7378 3.0135 11.4362 3.9966 11.8096C3.00975 12.2893 1.95072 12.4887 0.786689 12.4174C0.572321 12.4043 0.376389 12.5387 0.311078 12.7434C0.24608 12.948 0.328578 13.1709 0.511385 13.284C2.03447 14.2268 3.83098 14.6639 5.56436 14.6639C7.34087 14.6639 9.03926 14.1827 10.5214 13.2524C11.3533 12.7302 12.0904 12.0809 12.7123 11.3228C13.027 10.9394 13.3082 10.5322 13.5551 10.1047C13.8019 9.67721 14.0138 9.22878 14.1894 8.76286C14.5707 7.75039 14.7725 6.67448 14.7891 5.56451C14.7969 5.54014 14.8285 5.48108 14.8782 5.42983C15.1153 5.18359 15.3803 4.93703 15.6369 4.6986C15.78 4.56548 15.9272 4.42861 16.0706 4.2908C16.2111 4.20134 16.289 4.04756 16.289 3.89394C16.289 3.79363 16.2559 3.68926 16.1797 3.59457ZM14.2032 4.77923C14.1219 4.86329 13.8569 5.16703 13.8516 5.53858C13.8382 6.54449 13.6566 7.5179 13.3119 8.43224C11.9989 11.9175 8.56084 14.0305 4.75626 13.6902C4.00097 13.6227 3.2863 13.474 2.61757 13.2459C3.64129 13.0555 4.59408 12.6437 5.49811 12.0046C5.65655 11.8925 5.72967 11.6943 5.68186 11.5065C5.63405 11.3184 5.4753 11.179 5.28281 11.1562C4.27284 11.0369 3.57911 10.6691 3.11131 9.98907H3.60004C3.82535 9.98907 4.01909 9.82845 4.06066 9.6069C4.10222 9.38534 3.98003 9.16535 3.77004 9.08347C2.70538 8.66911 2.07821 8.05507 1.8376 7.17791C2.12134 7.25259 2.39883 7.32571 2.67976 7.40009C2.90163 7.45852 3.13318 7.3479 3.22724 7.13853C3.32099 6.92916 3.24943 6.68261 3.05819 6.55605C2.24321 6.01669 1.81978 5.34358 1.76322 4.49798C1.74541 4.23143 1.77479 3.97081 1.85447 3.70332C3.56598 5.3814 5.64436 6.30668 8.04241 6.45605C8.29866 6.47199 8.52021 6.27887 8.53896 6.02263C8.55146 5.85419 8.55646 5.69295 8.56115 5.53702C8.57021 5.24234 8.57896 4.9636 8.63802 4.72298C8.85145 3.85613 9.47081 3.19583 10.337 2.91147C11.2401 2.61523 12.2173 2.80366 12.9513 3.41614C13.0723 3.51676 13.4398 3.82363 13.9854 3.6202C14.0391 3.6002 14.0926 3.58051 14.1463 3.56051C14.1019 3.59707 14.056 3.63363 14.0082 3.6702C13.7869 3.77975 13.6871 4.04518 13.786 4.27518L13.7922 4.29018C13.8947 4.52798 14.1704 4.63798 14.4082 4.53548C14.411 4.53423 14.4141 4.53298 14.4169 4.53173C14.431 4.5283 14.4454 4.52486 14.4597 4.52142C14.3729 4.60642 14.2869 4.69235 14.2032 4.77923Z" fill="#FA5C45"/>
</g>
<defs>
<clipPath id="clip0">
<rect width="16" height="16" fill="white" transform="translate(0.289062 0.25)"/>
</clipPath>
</defs>
</svg>
