<svg width="35" height="35" viewBox="0 0 35 35" fill="none" xmlns="http://www.w3.org/2000/svg">
<g clip-path="url(#clip0)">
<path d="M22.1989 9.12297H21.9989V9.32297V11.2516V11.4516H22.1989H30.6829H30.8829V11.2516V9.32297V9.12297H30.6829H22.1989ZM14.2423 16.9109C14.982 16.5184 15.5709 16.0384 15.9927 15.4479C16.5006 14.737 16.7556 13.8808 16.7556 12.8575C16.7556 10.8386 15.9474 9.55564 14.6572 8.7908C13.3857 8.03702 11.6688 7.8 9.86617 7.8H0H-0.2V8V27.6214V27.8214H0H10.1426C12.0695 27.8214 13.9551 27.3878 15.3654 26.4322C16.7844 25.4706 17.7124 23.9856 17.7124 21.9231C17.7124 20.658 17.3932 19.5427 16.7304 18.6526C16.1521 17.8761 15.3217 17.2835 14.2423 16.9109ZM33.9083 23.2836L34.0002 23.0182H33.7193H30.0493H29.9045L29.8593 23.1557C29.6818 23.6954 29.2253 24.1247 28.6389 24.422C28.0541 24.7186 27.3633 24.8711 26.762 24.8711C25.577 24.8711 24.705 24.5467 24.129 23.9753C23.5886 23.4391 23.284 22.6608 23.2486 21.6569H33.9702H34.1597L34.1699 21.4677C34.1721 21.4284 34.1743 21.3885 34.1767 21.3479C34.1879 21.1499 34.2 20.9379 34.2 20.7237C34.2 18.5812 33.5313 16.6045 32.2441 15.1607C30.9542 13.7139 29.056 12.8169 26.6301 12.8169C21.9075 12.8169 18.6775 16.1602 18.6775 20.5403C18.6775 22.7978 19.4371 24.717 20.8215 26.0718C22.2057 27.4264 24.1972 28.2 26.6301 28.2C28.4672 28.2 29.9997 27.8125 31.2204 26.9962C32.4426 26.1788 33.3336 24.944 33.9083 23.2836ZM4.80138 11.5473H8.91782C9.73911 11.5473 10.4847 11.6559 11.0193 11.9639C11.283 12.1159 11.4938 12.3154 11.6397 12.575C11.786 12.8351 11.8733 13.1664 11.8733 13.5908C11.8733 14.3721 11.6042 14.892 11.1663 15.2235C10.719 15.5623 10.0672 15.7259 9.26654 15.7259H4.80138V11.5473ZM9.5132 24.0901H4.79712V19.0866H9.61101C10.6025 19.0866 11.3762 19.2818 11.8989 19.6916C12.4123 20.0941 12.7153 20.7293 12.7153 21.688C12.7153 22.6156 12.3622 23.2 11.808 23.5629C11.2394 23.9353 10.4349 24.0901 9.5132 24.0901ZM29.5948 18.7942H23.2656C23.3652 18.0057 23.6982 17.3723 24.2068 16.9254C24.7618 16.4377 25.5423 16.1578 26.4983 16.1578C27.5073 16.1578 28.2372 16.4346 28.7366 16.9135C29.1967 17.3548 29.4827 17.988 29.5948 18.7942Z" fill="white" stroke="white" stroke-width="0.4"/>
</g>
<defs>
<clipPath id="clip0">
<rect width="35" height="35" fill="white"/>
</clipPath>
</defs>
</svg>
