<svg width="30" height="30" viewBox="0 0 30 30" fill="none" xmlns="http://www.w3.org/2000/svg">
<path d="M8.77767 3.01562C6.90409 3.98924 5.2847 5.38831 4.04936 7.10067C2.81401 8.81302 1.99708 10.791 1.66406 12.876H2.44706C7.49606 12.759 11.4543 12.3216 14.6871 11.3316C13.2831 8.84223 11.5695 6.39963 9.51386 3.91563L9.51206 3.91383L8.77767 3.01562Z" fill="white"/>
<path d="M1.5036 14.6758L1.5 14.9998C1.5 18.6304 2.9328 21.9262 5.2638 24.3527L5.5536 23.7695C5.5697 23.7372 5.58774 23.7059 5.6076 23.6758C8.59201 19.1362 11.9688 16.4362 15.7452 15.2248C16.0008 15.142 16.26 15.0664 16.5192 14.998C16.2168 14.3049 15.8945 13.6206 15.5526 12.946C12.0156 14.0854 7.76401 14.5534 2.4792 14.674H1.5054L1.5036 14.6758Z" fill="white"/>
<path d="M6.64648 25.6076C9.02484 27.4857 11.968 28.505 14.9985 28.5002C16.6059 28.5002 18.1485 28.2194 19.5759 27.7046V26.4086C19.1367 22.9256 18.3645 19.7306 17.2035 16.6814C16.8975 16.757 16.5933 16.8434 16.2927 16.9388C13.0131 17.9918 9.94769 20.3642 7.13969 24.6212L6.64828 25.6076H6.64648Z" fill="white"/>
<path d="M21.3766 26.9014C23.1166 25.9677 24.631 24.6643 25.8133 23.0827C26.9956 21.5011 27.8172 19.6797 28.2202 17.7466L27.2032 17.2876C24.2764 16.4272 21.5494 16.0744 19.0078 16.3606C20.1562 19.4566 20.9284 22.7074 21.3694 26.239C21.3748 26.275 21.3766 26.311 21.3766 26.3506V26.9014Z" fill="white"/>
<path d="M28.4715 15.8856C28.7091 12.3498 27.5415 8.86319 25.2225 6.18359L24.6879 6.77579C22.5819 9.3372 20.1771 11.1138 17.2539 12.3234C17.6355 13.0866 17.9919 13.8552 18.3213 14.6346C21.3309 14.2026 24.4953 14.6094 27.7731 15.5796C27.8131 15.5913 27.8522 15.6057 27.8901 15.6228L28.4715 15.8856Z" fill="white"/>
<path d="M23.9563 4.89842C21.489 2.70468 18.3011 1.49509 14.9995 1.50001C13.4191 1.50001 11.9035 1.77002 10.4941 2.27042L10.9045 2.77082C13.1005 5.42222 14.9221 8.04302 16.4089 10.7232C19.1863 9.60182 21.3877 7.96202 23.3101 5.61662C23.3189 5.6056 23.3279 5.5948 23.3371 5.58422L23.9563 4.90022V4.89842Z" fill="white"/>
</svg>
