<svg width="165" height="64" viewBox="0 0 165 64" fill="none" xmlns="http://www.w3.org/2000/svg">
<path d="M14.5895 52.976C14.5062 52.976 14.4228 52.976 14.3394 52.9337C12.2552 52.0834 10.2961 50.9783 8.54532 49.5333C6.79456 48.1307 5.29392 46.473 4.0017 44.6028C1.37558 40.7348 0 36.1868 0 31.4687C0 28.3659 0.583584 25.348 1.79243 22.5002C2.9179 19.7374 4.58528 17.2721 6.62784 15.1894C8.712 13.0642 11.1297 11.4065 13.8392 10.2589C16.6321 9.06871 19.5916 8.47363 22.6346 8.47363C25.6776 8.47363 28.6372 9.11122 31.4717 10.3438C34.1812 11.534 36.6406 13.2342 38.7664 15.3594C40.8924 17.5271 42.5598 19.9925 43.7271 22.7553C44.9357 25.6031 45.5609 28.6634 45.5609 31.7663C45.5609 34.7416 44.8526 37.8869 43.56 40.7773C42.4349 43.3274 40.8507 45.5803 39.1833 47.1105C39.1 47.1957 38.9749 47.2805 38.8915 47.3657C37.9328 48.2155 37.2658 48.853 36.2237 49.023C35.1399 49.1934 33.806 48.8106 31.555 47.8332C31.305 47.748 26.0944 44.9004 25.5108 44.6028L25.8026 44.0501C28.0952 45.2827 31.5967 47.1957 31.8052 47.2805C36.057 49.1506 36.7239 48.5555 38.4746 46.9405C38.558 46.8553 38.6414 46.7705 38.7664 46.6853C41.7262 43.9653 44.9357 38.1845 44.9357 31.8088C44.9357 19.5674 34.7648 9.1537 22.6763 9.1537C16.7988 9.1537 11.2548 11.449 7.128 15.6994C2.95959 19.9499 0.666948 25.5606 0.666948 31.5538C0.666948 40.8198 6.1276 49.023 14.6312 52.3809C14.6729 52.3809 14.7146 52.3809 14.7146 52.3385L22.8013 39.9697L24.969 40.7348L24.7605 41.3298L23.0515 40.7348L15.1731 52.6785C15.0481 52.8485 14.8396 52.976 14.5895 52.976Z" fill="#FA5C45"/>
<path d="M21.7627 42.0956C22.1378 41.5006 22.9298 41.3305 23.5551 41.6704C23.5551 41.6704 23.5551 41.6704 23.5968 41.6704C23.5968 41.6704 28.3071 44.2633 30.5998 45.1983C31.2667 45.4535 32.2671 45.1983 32.7256 44.6884C35.852 41.4156 37.7694 36.6975 37.7694 31.682C37.7694 20.3332 27.1399 11.5347 15.51 15.0626C10.2994 16.6353 6.17272 20.7157 4.547 25.9863C1.21227 36.655 7.67336 46.6013 17.0524 48.6838C17.219 48.7262 17.3858 48.6414 17.4692 48.5138L21.7627 42.0956Z" fill="#FA5C45"/>
<path d="M18.9255 57.9486L15.5074 57.6511C14.6737 57.6083 14.2152 56.6308 14.7154 55.9509L22.3853 44.3893C22.7605 43.837 23.7192 43.1995 24.3445 43.4543L28.096 45.282L21.3015 56.6732C20.8013 57.5235 19.8842 58.0334 18.9255 57.9486Z" fill="#FA5C45"/>
<path d="M78.5678 28.7989C81.5496 27.2787 83.087 24.7134 83.087 21.6256C83.087 16.59 78.8941 12.9321 69.9026 12.9321H52.4785V46.1857H70.8341C79.8255 46.1857 84.6245 42.8128 84.6245 37.0172C84.6245 33.0743 82.3882 30.224 78.5678 28.7989ZM68.4115 20.7705C70.8807 20.7705 71.9989 21.6256 71.9989 23.2407C71.9989 24.8559 70.8807 25.711 68.4115 25.711H63.287V20.7705H68.4115ZM69.9026 38.3474H63.287V33.1218H69.9026C72.3252 33.1218 73.5363 34.0244 73.5363 35.7346C73.5363 37.4448 72.3252 38.3474 69.9026 38.3474ZM104.212 12.9321H88.512V46.1857H99.5068V38.0149H104.212C113.297 38.0149 119.074 33.1693 119.074 25.4735C119.074 17.7776 113.297 12.9321 104.212 12.9321ZM103.513 29.3689H99.5068V21.5781H103.513C106.542 21.5781 107.986 23.0507 107.986 25.4735C107.986 27.8962 106.542 29.3689 103.513 29.3689ZM161.813 46.1857L161.72 12.9321H152.682L142.339 30.6515L131.717 12.9321H122.679V46.1857H132.696V31.5541L139.777 43.193H144.622L151.704 31.0316L151.797 46.1857H161.813Z" fill="#FA5C45"/>
<path d="M57.1743 60.8331C56.2596 60.8331 55.4313 60.6307 54.6894 60.226C53.9561 59.8124 53.378 59.2452 52.9551 58.5237C52.5412 57.8023 52.334 56.9886 52.334 56.0826C52.334 55.1766 52.5457 54.3629 52.9682 53.6414C53.3911 52.92 53.9688 52.3569 54.7025 51.9521C55.4444 51.5386 56.2727 51.332 57.187 51.332C57.9288 51.332 58.6064 51.4642 59.2189 51.7281C59.8315 51.992 60.349 52.3747 60.7719 52.8759L59.6849 53.9186C59.029 53.1972 58.2224 52.8364 57.2647 52.8364C56.6436 52.8364 56.0872 52.9773 55.5951 53.2587C55.1034 53.5313 54.7197 53.9141 54.4434 54.4065C54.1674 54.8994 54.0294 55.458 54.0294 56.0826C54.0294 56.7072 54.1674 57.2657 54.4434 57.7586C54.7197 58.2511 55.1034 58.638 55.5951 58.9198C56.0872 59.1924 56.6436 59.3287 57.2647 59.3287C58.2224 59.3287 59.029 58.9638 59.6849 58.2336L60.7719 59.2892C60.349 59.7904 59.827 60.1732 59.2058 60.4371C58.5933 60.701 57.9161 60.8331 57.1743 60.8331ZM77.7837 51.4642H79.466V59.2497H84.2023V60.701H77.7837V51.4642ZM104.998 60.8331C104.075 60.8331 103.243 60.6307 102.501 60.226C101.758 59.8124 101.176 59.2452 100.754 58.5237C100.331 57.7935 100.119 56.9798 100.119 56.0826C100.119 55.1853 100.331 54.3758 100.754 53.6547C101.176 52.9241 101.758 52.3569 102.501 51.9521C103.243 51.5386 104.075 51.332 104.998 51.332C105.922 51.332 106.754 51.5386 107.496 51.9521C108.238 52.3569 108.82 52.92 109.243 53.6414C109.666 54.3629 109.877 55.1766 109.877 56.0826C109.877 56.9886 109.666 57.8023 109.243 58.5237C108.82 59.2452 108.238 59.8124 107.496 60.226C106.754 60.6307 105.922 60.8331 104.998 60.8331ZM104.998 59.3287C105.602 59.3287 106.145 59.1924 106.629 58.9198C107.112 58.638 107.491 58.2511 107.767 57.7586C108.044 57.257 108.182 56.6985 108.182 56.0826C108.182 55.4667 108.044 54.9127 107.767 54.4198C107.491 53.9186 107.112 53.5313 106.629 53.2587C106.145 52.9773 105.602 52.8364 104.998 52.8364C104.395 52.8364 103.851 52.9773 103.368 53.2587C102.884 53.5313 102.505 53.9186 102.229 54.4198C101.953 54.9127 101.815 55.4667 101.815 56.0826C101.815 56.6985 101.953 57.257 102.229 57.7586C102.505 58.2511 102.884 58.638 103.368 58.9198C103.851 59.1924 104.395 59.3287 104.998 59.3287ZM130.955 60.8331C129.705 60.8331 128.73 60.477 128.031 59.7642C127.332 59.0428 126.983 58.0138 126.983 56.6764V51.4642H128.665V56.6104C128.665 58.4227 129.433 59.3287 130.969 59.3287C132.496 59.3287 133.259 58.4227 133.259 56.6104V51.4642H134.915V56.6764C134.915 58.0138 134.566 59.0428 133.867 59.7642C133.177 60.477 132.206 60.8331 130.955 60.8331ZM152.672 51.4642H156.632C157.598 51.4642 158.456 51.6574 159.207 52.0448C159.957 52.4229 160.54 52.964 160.954 53.6676C161.368 54.3629 161.575 55.1675 161.575 56.0826C161.575 56.9977 161.368 57.8068 160.954 58.5104C160.54 59.2057 159.957 59.7468 159.207 60.1337C158.456 60.5119 157.598 60.701 156.632 60.701H152.672V51.4642ZM156.554 59.2497C157.218 59.2497 157.801 59.1222 158.301 58.867C158.81 58.6031 159.198 58.2336 159.466 57.7586C159.742 57.2745 159.88 56.7159 159.88 56.0826C159.88 55.4492 159.742 54.8948 159.466 54.4198C159.198 53.9361 158.81 53.5666 158.301 53.3115C157.801 53.0476 157.218 52.9154 156.554 52.9154H154.354V59.2497H156.554Z" fill="#FA5C45"/>
</svg>
